<svg width="96" height="97" viewBox="0 0 96 97" fill="none" xmlns="http://www.w3.org/2000/svg">
<path d="M0 3.809C0 1.70535 1.70535 0 3.809 0H47.075C73.6675 0 95.225 21.5575 95.225 48.15C95.225 74.7425 73.6675 96.3 47.075 96.3H3.809C1.70534 96.3 0 94.5947 0 92.491V3.809Z" fill="url(#paint0_linear_5_450)"/>
<path d="M23.0552 45.6028C23.0552 42.3184 24.6652 39.1467 27.8852 36.0877L27.209 27.9733H32.039L31.6043 32.9965C32.4415 32.3847 33.7295 31.4992 35.4683 30.34L41.3126 38.1646C38.801 39.034 36.7724 40.1449 35.2268 41.4973C33.7134 42.8497 32.9567 44.2665 32.9567 45.7477C32.9567 46.7781 33.327 48.4364 34.0676 50.7226C34.8404 52.9766 35.2268 54.5866 35.2268 55.5526C35.2268 58.2252 33.9549 60.4792 31.4111 62.3146L32.039 69.5596H27.209L27.6437 64.3432C25.9693 65.0516 23.7636 65.7117 21.0266 66.3235L20.0123 63.184C24.4881 61.9282 26.726 59.6903 26.726 56.4703C26.726 55.6653 26.4201 54.6832 25.8083 53.524C25.1965 52.3648 24.5847 51.109 23.9729 49.7566C23.3611 48.372 23.0552 46.9874 23.0552 45.6028Z" fill="#F7FFF7"/>
<path d="M74.3916 33.721C69.8836 32.272 65.3273 31.5475 60.7227 31.5475C56.1181 31.5475 52.5761 32.3203 50.0967 33.8659C49.5171 35.6047 49.2273 37.263 49.2273 38.8408C49.2273 42.5438 50.7568 45.6511 53.8158 48.1627C56.8748 50.6421 60.8193 52.4292 65.6493 53.524L66.8085 64.3432L71.6385 64.8262L74.3916 33.721ZM58.5492 40.2415C58.5492 37.7621 59.5635 35.9106 61.5921 34.687C62.1717 34.687 62.8801 34.7997 63.7173 35.0251L65.3112 50.2396C63.2182 49.0804 61.576 47.5831 60.3846 45.7477C59.161 43.9123 58.5492 42.0769 58.5492 40.2415Z" fill="#F7FFF7"/>
<defs>
<linearGradient id="paint0_linear_5_450" x1="95.225" y1="48.15" x2="0" y2="48.15" gradientUnits="userSpaceOnUse">
<stop stop-color="#44C151"/>
<stop offset="1" stop-color="#1B1D5E"/>
</linearGradient>
</defs>
</svg>
