<svg width="821" height="97" viewBox="0 0 821 97" fill="none" xmlns="http://www.w3.org/2000/svg">
<path d="M0 3.809C0 1.70535 1.70535 0 3.809 0H47.075C73.6675 0 95.225 21.5575 95.225 48.15C95.225 74.7425 73.6675 96.3 47.075 96.3H3.809C1.70534 96.3 0 94.5947 0 92.491V3.809Z" fill="url(#paint0_linear_5_449)"/>
<path d="M23.0552 45.6028C23.0552 42.3184 24.6652 39.1467 27.8852 36.0877L27.209 27.9733H32.039L31.6043 32.9965C32.4415 32.3847 33.7295 31.4992 35.4683 30.34L41.3126 38.1646C38.801 39.034 36.7724 40.1449 35.2268 41.4973C33.7134 42.8497 32.9567 44.2665 32.9567 45.7477C32.9567 46.7781 33.327 48.4364 34.0676 50.7226C34.8404 52.9766 35.2268 54.5866 35.2268 55.5526C35.2268 58.2252 33.9549 60.4792 31.4111 62.3146L32.039 69.5596H27.209L27.6437 64.3432C25.9693 65.0516 23.7636 65.7117 21.0266 66.3235L20.0123 63.184C24.4881 61.9282 26.726 59.6903 26.726 56.4703C26.726 55.6653 26.4201 54.6832 25.8083 53.524C25.1965 52.3648 24.5847 51.109 23.9729 49.7566C23.3611 48.372 23.0552 46.9874 23.0552 45.6028Z" fill="#F7FFF7"/>
<path d="M74.3916 33.721C69.8836 32.272 65.3273 31.5475 60.7227 31.5475C56.1181 31.5475 52.5761 32.3203 50.0967 33.8659C49.5171 35.6047 49.2273 37.263 49.2273 38.8408C49.2273 42.5438 50.7568 45.6511 53.8158 48.1627C56.8748 50.6421 60.8193 52.4292 65.6493 53.524L66.8085 64.3432L71.6385 64.8262L74.3916 33.721ZM58.5492 40.2415C58.5492 37.7621 59.5635 35.9106 61.5921 34.687C62.1717 34.687 62.8801 34.7997 63.7173 35.0251L65.3112 50.2396C63.2182 49.0804 61.576 47.5831 60.3846 45.7477C59.161 43.9123 58.5492 42.0769 58.5492 40.2415Z" fill="#F7FFF7"/>
<path d="M169.773 49.9285C169.773 54.195 169.049 58.1529 167.6 61.8023C166.178 65.4516 164.152 68.6045 161.522 71.261C158.919 73.9175 155.78 76.0105 152.104 77.54C148.428 79.0427 144.349 79.794 139.868 79.794C135.387 79.794 131.308 79.0427 127.632 77.54C123.956 76.0105 120.803 73.9175 118.173 71.261C115.543 68.6045 113.504 65.4516 112.055 61.8023C110.633 58.1529 109.922 54.195 109.922 49.9285C109.922 45.662 110.633 41.7175 112.055 38.095C113.504 34.4457 115.543 31.2928 118.173 28.6363C120.803 25.9798 123.956 23.9002 127.632 22.3975C131.308 20.868 135.387 20.1033 139.868 20.1033C144.349 20.1033 148.428 20.868 152.104 22.3975C155.78 23.9002 158.919 25.9932 161.522 28.6765C164.152 31.333 166.178 34.4859 167.6 38.1353C169.049 41.7578 169.773 45.6889 169.773 49.9285ZM157.417 49.9285C157.417 46.8695 157.014 44.1325 156.209 41.7175C155.404 39.2757 154.237 37.2095 152.707 35.519C151.205 33.8017 149.367 32.5003 147.193 31.6148C145.047 30.7024 142.605 30.2463 139.868 30.2463C137.131 30.2463 134.675 30.7024 132.502 31.6148C130.328 32.5003 128.477 33.8017 126.947 35.519C125.445 37.2095 124.291 39.2757 123.486 41.7175C122.681 44.1325 122.278 46.8695 122.278 49.9285C122.278 53.0144 122.681 55.7782 123.486 58.22C124.291 60.635 125.445 62.6878 126.947 64.3783C128.477 66.0688 130.328 67.3702 132.502 68.2825C134.675 69.168 137.131 69.6108 139.868 69.6108C142.605 69.6108 145.047 69.168 147.193 68.2825C149.367 67.3702 151.205 66.0688 152.707 64.3783C154.237 62.6878 155.404 60.635 156.209 58.22C157.014 55.7782 157.417 53.0144 157.417 49.9285ZM217.272 69.329V79.15H182.617V20.7473H194.692V69.329H217.272ZM263.355 69.329V79.15H228.7V20.7473H240.775V69.329H263.355ZM305.615 56.9723L299.295 39.1013C298.92 38.1621 298.517 37.0619 298.088 35.8008C297.685 34.5396 297.296 33.1711 296.921 31.6953C296.545 33.1979 296.143 34.5933 295.713 35.8813C295.311 37.1424 294.922 38.2426 294.546 39.1818L288.267 56.9723H305.615ZM325.901 79.15H316.522C315.476 79.15 314.617 78.9085 313.946 78.4255C313.302 77.9157 312.819 77.2717 312.497 76.4935L308.553 65.3443H285.288L281.344 76.4935C281.076 77.1644 280.606 77.7815 279.935 78.345C279.264 78.8817 278.419 79.15 277.399 79.15H267.941L290.762 20.7473H303.119L325.901 79.15ZM353.605 48.399C355.563 48.399 357.254 48.1575 358.676 47.6745C360.098 47.1647 361.266 46.4804 362.178 45.6218C363.09 44.7363 363.761 43.7032 364.19 42.5225C364.62 41.3419 364.834 40.0539 364.834 38.6585C364.834 35.8947 363.909 33.748 362.057 32.2185C360.232 30.689 357.442 29.9243 353.685 29.9243H347.406V48.399H353.605ZM381.9 79.15H370.993C368.953 79.15 367.478 78.3719 366.565 76.8155L355.456 58.9043C355 58.2066 354.49 57.6968 353.927 57.3748C353.39 57.0528 352.585 56.8918 351.512 56.8918H347.406V79.15H335.331V20.7473H353.685C357.764 20.7473 361.252 21.1766 364.15 22.0353C367.048 22.8671 369.423 24.0344 371.274 25.537C373.126 27.0397 374.481 28.8375 375.34 30.9305C376.198 32.9967 376.628 35.2775 376.628 37.773C376.628 39.705 376.346 41.5431 375.782 43.2873C375.246 45.0046 374.454 46.5744 373.408 47.9965C372.361 49.4187 371.073 50.6799 369.544 51.78C368.014 52.8802 366.27 53.7657 364.311 54.4365C365.089 54.8659 365.814 55.3891 366.485 56.0063C367.156 56.5966 367.759 57.3077 368.296 58.1395L381.9 79.15ZM434.485 49.8078C438.268 49.8078 441.032 48.8954 442.776 47.0708C444.547 45.2461 445.433 42.7506 445.433 39.5843C445.433 38.1353 445.204 36.8204 444.748 35.6398C444.319 34.4323 443.648 33.4126 442.736 32.5808C441.85 31.7221 440.723 31.0647 439.355 30.6085C437.986 30.1524 436.363 29.9243 434.485 29.9243H426.837V49.8078H434.485ZM434.485 20.7473C438.483 20.7473 441.931 21.2169 444.829 22.156C447.754 23.0952 450.155 24.41 452.034 26.1005C453.912 27.7642 455.294 29.7499 456.179 32.0575C457.092 34.3652 457.548 36.8741 457.548 39.5843C457.548 42.4554 457.078 45.0851 456.139 47.4733C455.2 49.8614 453.778 51.9142 451.873 53.6315C449.967 55.3489 447.566 56.6905 444.668 57.6565C441.77 58.5957 438.375 59.0653 434.485 59.0653H426.837V79.15H414.762V20.7473H434.485ZM487.53 48.399C489.489 48.399 491.18 48.1575 492.602 47.6745C494.024 47.1647 495.191 46.4804 496.103 45.6218C497.016 44.7363 497.687 43.7032 498.116 42.5225C498.545 41.3419 498.76 40.0539 498.76 38.6585C498.76 35.8947 497.834 33.748 495.983 32.2185C494.158 30.689 491.367 29.9243 487.611 29.9243H481.332V48.399H487.53ZM515.826 79.15H504.918C502.879 79.15 501.403 78.3719 500.491 76.8155L489.382 58.9043C488.926 58.2066 488.416 57.6968 487.852 57.3748C487.316 57.0528 486.511 56.8918 485.437 56.8918H481.332V79.15H469.257V20.7473H487.611C491.689 20.7473 495.178 21.1766 498.076 22.0353C500.974 22.8671 503.348 24.0344 505.2 25.537C507.051 27.0397 508.407 28.8375 509.265 30.9305C510.124 32.9967 510.553 35.2775 510.553 37.773C510.553 39.705 510.271 41.5431 509.708 43.2873C509.171 45.0046 508.38 46.5744 507.333 47.9965C506.287 49.4187 504.999 50.6799 503.469 51.78C501.94 52.8802 500.196 53.7657 498.237 54.4365C499.015 54.8659 499.739 55.3891 500.41 56.0063C501.081 56.5966 501.685 57.3077 502.221 58.1395L515.826 79.15ZM581.047 49.9285C581.047 54.195 580.322 58.1529 578.873 61.8023C577.451 65.4516 575.425 68.6045 572.795 71.261C570.193 73.9175 567.053 76.0105 563.377 77.54C559.701 79.0427 555.622 79.794 551.141 79.794C546.66 79.794 542.581 79.0427 538.905 77.54C535.229 76.0105 532.076 73.9175 529.446 71.261C526.817 68.6045 524.777 65.4516 523.328 61.8023C521.906 58.1529 521.195 54.195 521.195 49.9285C521.195 45.662 521.906 41.7175 523.328 38.095C524.777 34.4457 526.817 31.2928 529.446 28.6363C532.076 25.9798 535.229 23.9002 538.905 22.3975C542.581 20.868 546.66 20.1033 551.141 20.1033C555.622 20.1033 559.701 20.868 563.377 22.3975C567.053 23.9002 570.193 25.9932 572.795 28.6765C575.425 31.333 577.451 34.4859 578.873 38.1353C580.322 41.7578 581.047 45.6889 581.047 49.9285ZM568.69 49.9285C568.69 46.8695 568.287 44.1325 567.482 41.7175C566.677 39.2757 565.51 37.2095 563.981 35.519C562.478 33.8017 560.64 32.5003 558.466 31.6148C556.32 30.7024 553.878 30.2463 551.141 30.2463C548.404 30.2463 545.949 30.7024 543.775 31.6148C541.602 32.5003 539.75 33.8017 538.221 35.519C536.718 37.2095 535.564 39.2757 534.759 41.7175C533.954 44.1325 533.552 46.8695 533.552 49.9285C533.552 53.0144 533.954 55.7782 534.759 58.22C535.564 60.635 536.718 62.6878 538.221 64.3783C539.75 66.0688 541.602 67.3702 543.775 68.2825C545.949 69.168 548.404 69.6108 551.141 69.6108C553.878 69.6108 556.32 69.168 558.466 68.2825C560.64 67.3702 562.478 66.0688 563.981 64.3783C565.51 62.6878 566.677 60.635 567.482 58.22C568.287 55.7782 568.69 53.0144 568.69 49.9285ZM658.29 20.7473V79.15H647.624V43.2873C647.624 42.5359 647.637 41.7309 647.664 40.8723C647.718 40.0136 647.798 39.1415 647.906 38.256L631.202 69.9328C630.29 71.6769 628.881 72.549 626.976 72.549H625.285C624.346 72.549 623.514 72.3344 622.79 71.905C622.065 71.4489 621.488 70.7914 621.059 69.9328L604.275 38.1353C604.355 39.0744 604.422 39.9868 604.476 40.8723C604.53 41.7309 604.556 42.5359 604.556 43.2873V79.15H593.89V20.7473H603.067C603.577 20.7473 604.033 20.7607 604.436 20.7875C604.838 20.8144 605.187 20.8949 605.482 21.029C605.804 21.1364 606.086 21.3242 606.327 21.5925C606.596 21.834 606.851 22.1829 607.092 22.639L623.434 53.7925C623.944 54.7317 624.413 55.6977 624.842 56.6905C625.299 57.6834 625.728 58.703 626.131 59.7495C626.533 58.6762 626.949 57.6297 627.378 56.61C627.834 55.5904 628.317 54.6109 628.827 53.6718L645.048 22.639C645.289 22.1829 645.544 21.834 645.813 21.5925C646.081 21.3242 646.363 21.1364 646.658 21.029C646.98 20.8949 647.329 20.8144 647.705 20.7875C648.107 20.7607 648.577 20.7473 649.113 20.7473H658.29ZM694.207 49.8078C697.991 49.8078 700.754 48.8954 702.499 47.0708C704.27 45.2461 705.155 42.7506 705.155 39.5843C705.155 38.1353 704.927 36.8204 704.471 35.6398C704.041 34.4323 703.371 33.4126 702.458 32.5808C701.573 31.7221 700.446 31.0647 699.077 30.6085C697.709 30.1524 696.085 29.9243 694.207 29.9243H686.56V49.8078H694.207ZM694.207 20.7473C698.205 20.7473 701.653 21.2169 704.551 22.156C707.476 23.0952 709.878 24.41 711.756 26.1005C713.634 27.7642 715.016 29.7499 715.902 32.0575C716.814 34.3652 717.27 36.8741 717.27 39.5843C717.27 42.4554 716.801 45.0851 715.862 47.4733C714.922 49.8614 713.5 51.9142 711.595 53.6315C709.69 55.3489 707.288 56.6905 704.39 57.6565C701.492 58.5957 698.098 59.0653 694.207 59.0653H686.56V79.15H674.485V20.7473H694.207ZM770.316 30.4878H753.25V79.15H741.135V30.4878H724.069V20.7473H770.316V30.4878ZM813.145 31.9368C812.77 32.5539 812.38 33.0101 811.978 33.3053C811.602 33.5736 811.106 33.7078 810.489 33.7078C809.898 33.7078 809.254 33.5065 808.557 33.104C807.886 32.6747 807.094 32.2185 806.182 31.7355C805.27 31.2525 804.223 30.8098 803.042 30.4073C801.862 29.9779 800.48 29.7633 798.897 29.7633C796.106 29.7633 794.013 30.3939 792.618 31.655C791.222 32.8894 790.525 34.5128 790.525 36.5253C790.525 37.8133 790.9 38.8866 791.652 39.7453C792.43 40.5771 793.436 41.3016 794.67 41.9188C795.932 42.5359 797.354 43.086 798.937 43.569C800.52 44.052 802.144 44.5887 803.807 45.179C805.471 45.7425 807.094 46.4134 808.677 47.1915C810.261 47.9697 811.669 48.9491 812.904 50.1298C814.165 51.3104 815.171 52.7594 815.922 54.4768C816.701 56.1673 817.09 58.2334 817.09 60.6753C817.09 63.3318 816.62 65.8273 815.681 68.1618C814.769 70.4694 813.44 72.4954 811.696 74.2395C809.952 75.9569 807.792 77.3119 805.216 78.3048C802.667 79.2976 799.769 79.794 796.522 79.794C794.67 79.794 792.819 79.6062 790.967 79.2305C789.143 78.8549 787.372 78.3316 785.654 77.6608C783.964 76.9899 782.367 76.1849 780.865 75.2458C779.362 74.3066 778.047 73.2601 776.92 72.1063L780.462 66.3908C780.757 65.9614 781.146 65.6126 781.629 65.3443C782.112 65.0491 782.622 64.9015 783.159 64.9015C783.883 64.9015 784.648 65.1699 785.453 65.7065C786.258 66.2432 787.184 66.8335 788.23 67.4775C789.277 68.1215 790.484 68.7119 791.853 69.2485C793.248 69.7852 794.912 70.0535 796.844 70.0535C799.661 70.0535 801.835 69.4095 803.364 68.1215C804.921 66.8335 805.699 64.9149 805.699 62.3658C805.699 60.8899 805.31 59.6959 804.532 58.7835C803.78 57.8712 802.788 57.1064 801.553 56.4893C800.319 55.8721 798.91 55.3489 797.327 54.9195C795.744 54.4634 794.12 53.9669 792.457 53.4303C790.793 52.8936 789.17 52.2496 787.586 51.4983C786.003 50.7469 784.595 49.7541 783.36 48.5198C782.126 47.2854 781.12 45.7559 780.341 43.9313C779.59 42.1066 779.214 39.8392 779.214 37.129C779.214 34.9555 779.644 32.8491 780.502 30.8098C781.361 28.7704 782.622 26.9592 784.286 25.376C785.95 23.7929 787.989 22.5183 790.404 21.5523C792.846 20.5863 795.636 20.1033 798.776 20.1033C802.291 20.1033 805.538 20.6534 808.516 21.7535C811.522 22.8269 814.058 24.3295 816.124 26.2615L813.145 31.9368Z" fill="white"/>
<defs>
<linearGradient id="paint0_linear_5_449" x1="95.225" y1="48.15" x2="0" y2="48.15" gradientUnits="userSpaceOnUse">
<stop stop-color="#44C151"/>
<stop offset="1" stop-color="#1B1D5E"/>
</linearGradient>
</defs>
</svg>
